<mxfile host="app.diagrams.net" modified="2023-10-28T19:08:47.856Z" agent="Mozilla/5.0 (Windows NT 10.0; Win64; x64) AppleWebKit/537.36 (KHTML, like Gecko) Chrome/118.0.0.0 Safari/537.36" etag="ZMoN2Yi8hsMqgca9Ulpq" version="22.0.8" type="github">
  <diagram name="PÃ¡gina-1" id="kzgSED8vfyvIVl7uHRT8">
    <mxGraphModel dx="1430" dy="797" grid="1" gridSize="10" guides="1" tooltips="1" connect="1" arrows="1" fold="1" page="1" pageScale="1" pageWidth="827" pageHeight="1169" math="0" shadow="0">
      <root>
        <mxCell id="0" />
        <mxCell id="1" parent="0" />
        <mxCell id="uLn7ksq6nls_gsXbyjSP-26" value="&lt;div style=&quot;text-align: justify;&quot;&gt;&lt;span style=&quot;background-color: initial;&quot;&gt;CANCION (#nombre, duracion, discografia, nombre_comp , nombre_disco)&lt;/span&gt;&lt;/div&gt;&lt;div style=&quot;text-align: justify;&quot;&gt;&lt;span style=&quot;background-color: initial;&quot;&gt;&lt;br&gt;&lt;/span&gt;&lt;/div&gt;&lt;font style=&quot;&quot;&gt;&lt;div style=&quot;text-align: justify;&quot;&gt;&lt;span style=&quot;background-color: initial;&quot;&gt;&lt;br&gt;&lt;/span&gt;&lt;/div&gt;&lt;div style=&quot;text-align: justify;&quot;&gt;&lt;span style=&quot;background-color: initial;&quot;&gt;COMPOSITOR (#nombre, estilo_musical, fecha_debut&lt;/span&gt;&lt;span style=&quot;background-color: initial;&quot;&gt;)&lt;/span&gt;&lt;br&gt;&lt;/div&gt;&lt;div style=&quot;font-size: 12px; text-align: justify;&quot;&gt;&lt;br&gt;&lt;/div&gt;&lt;div style=&quot;font-size: 12px; text-align: justify;&quot;&gt;DISCO (#nombre, #discografia, duracion)&lt;/div&gt;&lt;div style=&quot;font-size: 12px; text-align: justify;&quot;&gt;&lt;br&gt;&lt;/div&gt;&lt;div style=&quot;font-size: 12px; text-align: justify;&quot;&gt;&lt;span style=&quot;background-color: initial;&quot;&gt;SOCIO (#dni, nombre)&lt;/span&gt;&lt;br&gt;&lt;/div&gt;&lt;div style=&quot;font-size: 12px; text-align: justify;&quot;&gt;&lt;span style=&quot;background-color: initial;&quot;&gt;&lt;br&gt;&lt;/span&gt;&lt;/div&gt;&lt;div style=&quot;font-size: 12px; text-align: justify;&quot;&gt;ES_FAVORITA (#dni_soc, #nombre_cancion)&lt;/div&gt;&lt;div style=&quot;font-size: 12px; text-align: justify;&quot;&gt;&lt;br&gt;&lt;/div&gt;&lt;div style=&quot;font-size: 12px; text-align: justify;&quot;&gt;&lt;br&gt;&lt;/div&gt;&lt;div style=&quot;font-size: 12px; text-align: justify;&quot;&gt;CREA (#nombre_comp, #nombre_cancion)&lt;/div&gt;&lt;div style=&quot;font-size: 12px; text-align: justify;&quot;&gt;&lt;br&gt;&lt;/div&gt;&lt;div style=&quot;font-size: 12px; text-align: justify;&quot;&gt;&lt;span style=&quot;background-color: initial;&quot;&gt;&lt;br&gt;&lt;/span&gt;&lt;/div&gt;&lt;div style=&quot;font-size: 12px; text-align: justify;&quot;&gt;&lt;span style=&quot;background-color: initial;&quot;&gt;&lt;br&gt;&lt;/span&gt;&lt;/div&gt;&lt;/font&gt;" style="text;html=1;align=center;verticalAlign=middle;resizable=1;points=[];autosize=1;strokeColor=none;fillColor=none;movable=1;rotatable=1;deletable=1;editable=1;locked=0;connectable=1;container=0;" vertex="1" parent="1">
          <mxGeometry x="66" y="865" width="420" height="240" as="geometry" />
        </mxCell>
        <mxCell id="uLn7ksq6nls_gsXbyjSP-1" value="" style="rounded=0;whiteSpace=wrap;html=1;fillColor=none;strokeColor=#B3B3B3;" vertex="1" parent="1">
          <mxGeometry x="10.370000000000005" y="10" width="800" height="1110" as="geometry" />
        </mxCell>
        <mxCell id="uLn7ksq6nls_gsXbyjSP-2" value="DISCO" style="whiteSpace=wrap;html=1;align=center;" vertex="1" parent="1">
          <mxGeometry x="179.87" y="660" width="100" height="40" as="geometry" />
        </mxCell>
        <mxCell id="uLn7ksq6nls_gsXbyjSP-130" style="edgeStyle=orthogonalEdgeStyle;rounded=0;orthogonalLoop=1;jettySize=auto;html=1;exitX=0.25;exitY=1;exitDx=0;exitDy=0;entryX=0;entryY=0.5;entryDx=0;entryDy=0;fontFamily=Helvetica;fontSize=14;fontColor=default;startSize=0;dashed=1;dashPattern=1 2;endArrow=none;endFill=0;" edge="1" parent="1" source="uLn7ksq6nls_gsXbyjSP-4" target="uLn7ksq6nls_gsXbyjSP-18">
          <mxGeometry relative="1" as="geometry" />
        </mxCell>
        <mxCell id="uLn7ksq6nls_gsXbyjSP-4" value="SOCIO" style="whiteSpace=wrap;html=1;align=center;" vertex="1" parent="1">
          <mxGeometry x="536" y="400" width="98" height="40" as="geometry" />
        </mxCell>
        <mxCell id="uLn7ksq6nls_gsXbyjSP-5" style="edgeStyle=orthogonalEdgeStyle;rounded=0;orthogonalLoop=1;jettySize=auto;html=1;exitX=1;exitY=0.5;exitDx=0;exitDy=0;entryX=0;entryY=0.5;entryDx=0;entryDy=0;endArrow=none;endFill=0;" edge="1" parent="1" source="uLn7ksq6nls_gsXbyjSP-7" target="uLn7ksq6nls_gsXbyjSP-10">
          <mxGeometry relative="1" as="geometry" />
        </mxCell>
        <mxCell id="uLn7ksq6nls_gsXbyjSP-133" style="edgeStyle=orthogonalEdgeStyle;rounded=0;orthogonalLoop=1;jettySize=auto;html=1;exitX=0.75;exitY=1;exitDx=0;exitDy=0;fontFamily=Helvetica;fontSize=14;fontColor=default;startSize=0;entryX=0;entryY=0.5;entryDx=0;entryDy=0;endArrow=none;endFill=0;dashed=1;dashPattern=1 2;" edge="1" parent="1" source="uLn7ksq6nls_gsXbyjSP-7" target="uLn7ksq6nls_gsXbyjSP-78">
          <mxGeometry relative="1" as="geometry">
            <mxPoint x="188.66666666666674" y="470" as="targetPoint" />
          </mxGeometry>
        </mxCell>
        <mxCell id="uLn7ksq6nls_gsXbyjSP-7" value="CANCION" style="whiteSpace=wrap;html=1;align=center;fillColor=#f5f5f5;strokeColor=#666666;fontColor=#333333;" vertex="1" parent="1">
          <mxGeometry x="113.87" y="400" width="100" height="40" as="geometry" />
        </mxCell>
        <mxCell id="uLn7ksq6nls_gsXbyjSP-8" style="edgeStyle=orthogonalEdgeStyle;rounded=0;orthogonalLoop=1;jettySize=auto;html=1;exitX=0.5;exitY=0;exitDx=0;exitDy=0;entryX=0.5;entryY=0;entryDx=0;entryDy=0;" edge="1" parent="1">
          <mxGeometry relative="1" as="geometry">
            <mxPoint x="22" y="550" as="sourcePoint" />
            <mxPoint x="22" y="550" as="targetPoint" />
          </mxGeometry>
        </mxCell>
        <mxCell id="uLn7ksq6nls_gsXbyjSP-9" style="edgeStyle=orthogonalEdgeStyle;rounded=0;orthogonalLoop=1;jettySize=auto;html=1;exitX=1;exitY=0.5;exitDx=0;exitDy=0;entryX=0;entryY=0.5;entryDx=0;entryDy=0;endArrow=none;endFill=0;" edge="1" parent="1" source="uLn7ksq6nls_gsXbyjSP-10" target="uLn7ksq6nls_gsXbyjSP-4">
          <mxGeometry relative="1" as="geometry" />
        </mxCell>
        <mxCell id="uLn7ksq6nls_gsXbyjSP-10" value="&lt;font style=&quot;font-size: 12px;&quot;&gt;&lt;font style=&quot;font-size: 12px;&quot;&gt;ES_FAVORITA&lt;/font&gt;&lt;br&gt;N:N&lt;/font&gt;" style="shape=rhombus;perimeter=rhombusPerimeter;whiteSpace=wrap;html=1;align=center;verticalAlign=middle;" vertex="1" parent="1">
          <mxGeometry x="355.37" y="385" width="110" height="70" as="geometry" />
        </mxCell>
        <mxCell id="uLn7ksq6nls_gsXbyjSP-11" style="rounded=0;orthogonalLoop=1;jettySize=auto;html=1;exitX=0;exitY=0.5;exitDx=0;exitDy=0;strokeColor=none;endArrow=none;endFill=0;shadow=1;" edge="1" parent="1">
          <mxGeometry relative="1" as="geometry">
            <mxPoint x="175.37" y="685" as="targetPoint" />
            <mxPoint x="155.37" y="670" as="sourcePoint" />
          </mxGeometry>
        </mxCell>
        <mxCell id="uLn7ksq6nls_gsXbyjSP-12" value="(0, N)" style="text;strokeColor=none;fillColor=none;spacingLeft=4;spacingRight=4;overflow=hidden;rotatable=0;points=[[0,0.5],[1,0.5]];portConstraint=eastwest;fontSize=12;whiteSpace=wrap;html=1;" vertex="1" parent="1">
          <mxGeometry x="219" y="400" width="50" height="20" as="geometry" />
        </mxCell>
        <mxCell id="uLn7ksq6nls_gsXbyjSP-13" value="(0, N)" style="text;strokeColor=none;fillColor=none;spacingLeft=4;spacingRight=4;overflow=hidden;rotatable=0;points=[[0,0.5],[1,0.5]];portConstraint=eastwest;fontSize=12;whiteSpace=wrap;html=1;" vertex="1" parent="1">
          <mxGeometry x="486" y="400" width="50" height="30" as="geometry" />
        </mxCell>
        <mxCell id="uLn7ksq6nls_gsXbyjSP-14" value="EJER. 10 -&amp;nbsp; KARAOKE" style="text;html=1;align=center;verticalAlign=middle;resizable=0;points=[];autosize=1;strokeColor=#36393d;fillColor=#cce5ff;" vertex="1" parent="1">
          <mxGeometry x="64" y="60" width="150" height="30" as="geometry" />
        </mxCell>
        <mxCell id="uLn7ksq6nls_gsXbyjSP-15" style="edgeStyle=orthogonalEdgeStyle;rounded=0;orthogonalLoop=1;jettySize=auto;html=1;exitX=0;exitY=0.5;exitDx=0;exitDy=0;entryX=1;entryY=0.5;entryDx=0;entryDy=0;endArrow=none;endFill=0;startArrow=none;startFill=0;strokeColor=none;" edge="1" parent="1">
          <mxGeometry relative="1" as="geometry">
            <mxPoint x="46" y="435" as="sourcePoint" />
            <mxPoint x="96" y="435" as="targetPoint" />
          </mxGeometry>
        </mxCell>
        <mxCell id="uLn7ksq6nls_gsXbyjSP-18" value="nombre" style="ellipse;whiteSpace=wrap;html=1;align=center;" vertex="1" parent="1">
          <mxGeometry x="590" y="550" width="100" height="40" as="geometry" />
        </mxCell>
        <mxCell id="uLn7ksq6nls_gsXbyjSP-24" value="dni" style="ellipse;whiteSpace=wrap;html=1;align=center;fontStyle=4;" vertex="1" parent="1">
          <mxGeometry x="644" y="480" width="100" height="40" as="geometry" />
        </mxCell>
        <mxCell id="uLn7ksq6nls_gsXbyjSP-25" value="" style="shape=waypoint;sketch=0;fillStyle=solid;size=6;pointerEvents=1;points=[];fillColor=none;resizable=0;rotatable=0;perimeter=centerPerimeter;snapToPoint=1;" vertex="1" parent="1">
          <mxGeometry x="684" y="470" width="20" height="20" as="geometry" />
        </mxCell>
        <mxCell id="uLn7ksq6nls_gsXbyjSP-75" style="edgeStyle=orthogonalEdgeStyle;rounded=0;orthogonalLoop=1;jettySize=auto;html=1;exitX=0;exitY=0.5;exitDx=0;exitDy=0;entryX=0.5;entryY=1;entryDx=0;entryDy=0;dashed=1;dashPattern=1 2;endArrow=none;endFill=0;" edge="1" parent="1" source="uLn7ksq6nls_gsXbyjSP-28">
          <mxGeometry relative="1" as="geometry">
            <mxPoint x="159.8699999999999" y="440" as="targetPoint" />
          </mxGeometry>
        </mxCell>
        <mxCell id="uLn7ksq6nls_gsXbyjSP-28" value="duracion" style="ellipse;whiteSpace=wrap;html=1;align=center;" vertex="1" parent="1">
          <mxGeometry x="219.5" y="500" width="100" height="40" as="geometry" />
        </mxCell>
        <mxCell id="uLn7ksq6nls_gsXbyjSP-44" style="edgeStyle=orthogonalEdgeStyle;rounded=0;orthogonalLoop=1;jettySize=auto;html=1;exitX=0.5;exitY=0;exitDx=0;exitDy=0;endArrow=none;endFill=0;entryX=0;entryY=0.5;entryDx=0;entryDy=0;" edge="1" parent="1" source="uLn7ksq6nls_gsXbyjSP-45" target="uLn7ksq6nls_gsXbyjSP-7">
          <mxGeometry relative="1" as="geometry">
            <mxPoint x="579" y="380" as="targetPoint" />
          </mxGeometry>
        </mxCell>
        <mxCell id="uLn7ksq6nls_gsXbyjSP-72" style="edgeStyle=orthogonalEdgeStyle;rounded=0;orthogonalLoop=1;jettySize=auto;html=1;exitX=0.5;exitY=1;exitDx=0;exitDy=0;entryX=0;entryY=0.5;entryDx=0;entryDy=0;endArrow=none;endFill=0;" edge="1" parent="1" source="uLn7ksq6nls_gsXbyjSP-45" target="uLn7ksq6nls_gsXbyjSP-2">
          <mxGeometry relative="1" as="geometry" />
        </mxCell>
        <mxCell id="uLn7ksq6nls_gsXbyjSP-45" value="PERTENECE&lt;br&gt;N:1" style="rhombus;whiteSpace=wrap;html=1;" vertex="1" parent="1">
          <mxGeometry x="14" y="540" width="110" height="70" as="geometry" />
        </mxCell>
        <mxCell id="uLn7ksq6nls_gsXbyjSP-50" style="edgeStyle=orthogonalEdgeStyle;rounded=0;orthogonalLoop=1;jettySize=auto;html=1;exitDx=0;exitDy=0;entryX=0.5;entryY=0;entryDx=0;entryDy=0;endArrow=none;endFill=0;dashed=1;dashPattern=1 2;" edge="1" parent="1">
          <mxGeometry relative="1" as="geometry">
            <mxPoint x="134.87" y="730" as="sourcePoint" />
            <mxPoint x="134.87" y="730" as="targetPoint" />
          </mxGeometry>
        </mxCell>
        <mxCell id="uLn7ksq6nls_gsXbyjSP-56" style="edgeStyle=orthogonalEdgeStyle;rounded=0;orthogonalLoop=1;jettySize=auto;html=1;exitX=0;exitY=0;exitDx=0;exitDy=0;entryX=0.75;entryY=1;entryDx=0;entryDy=0;dashed=1;dashPattern=1 2;endArrow=none;endFill=0;" edge="1" parent="1" source="uLn7ksq6nls_gsXbyjSP-57" target="uLn7ksq6nls_gsXbyjSP-2">
          <mxGeometry relative="1" as="geometry">
            <Array as="points">
              <mxPoint x="269.87" y="700" />
            </Array>
          </mxGeometry>
        </mxCell>
        <mxCell id="uLn7ksq6nls_gsXbyjSP-57" value="duracion" style="ellipse;whiteSpace=wrap;html=1;align=center;" vertex="1" parent="1">
          <mxGeometry x="255.37" y="745" width="100" height="40" as="geometry" />
        </mxCell>
        <mxCell id="uLn7ksq6nls_gsXbyjSP-58" style="edgeStyle=orthogonalEdgeStyle;rounded=0;orthogonalLoop=1;jettySize=auto;html=1;exitX=0.5;exitY=0;exitDx=0;exitDy=0;entryX=0.5;entryY=1;entryDx=0;entryDy=0;dashed=1;dashPattern=1 2;endArrow=none;endFill=0;" edge="1" parent="1" source="uLn7ksq6nls_gsXbyjSP-59" target="uLn7ksq6nls_gsXbyjSP-2">
          <mxGeometry relative="1" as="geometry">
            <Array as="points">
              <mxPoint x="229.87" y="700" />
            </Array>
          </mxGeometry>
        </mxCell>
        <mxCell id="uLn7ksq6nls_gsXbyjSP-59" value="discografia" style="ellipse;whiteSpace=wrap;html=1;align=center;fontStyle=4" vertex="1" parent="1">
          <mxGeometry x="180.37" y="785" width="100" height="40" as="geometry" />
        </mxCell>
        <mxCell id="uLn7ksq6nls_gsXbyjSP-60" style="edgeStyle=orthogonalEdgeStyle;rounded=0;orthogonalLoop=1;jettySize=auto;html=1;exitDx=0;exitDy=0;entryX=1;entryY=0.5;entryDx=0;entryDy=0;dashed=1;dashPattern=1 2;endArrow=none;endFill=0;" edge="1" parent="1" source="uLn7ksq6nls_gsXbyjSP-73" target="uLn7ksq6nls_gsXbyjSP-2">
          <mxGeometry relative="1" as="geometry">
            <Array as="points">
              <mxPoint x="329.87" y="680" />
            </Array>
          </mxGeometry>
        </mxCell>
        <mxCell id="uLn7ksq6nls_gsXbyjSP-61" value="nombre" style="ellipse;whiteSpace=wrap;html=1;align=center;fontStyle=4" vertex="1" parent="1">
          <mxGeometry x="280.37" y="690" width="100" height="40" as="geometry" />
        </mxCell>
        <mxCell id="uLn7ksq6nls_gsXbyjSP-62" value="(0, 1)" style="text;strokeColor=none;fillColor=none;spacingLeft=4;spacingRight=4;overflow=hidden;rotatable=0;points=[[0,0.5],[1,0.5]];portConstraint=eastwest;fontSize=12;whiteSpace=wrap;html=1;" vertex="1" parent="1">
          <mxGeometry x="134.87" y="680" width="50" height="30" as="geometry" />
        </mxCell>
        <mxCell id="uLn7ksq6nls_gsXbyjSP-74" value="" style="edgeStyle=orthogonalEdgeStyle;rounded=0;orthogonalLoop=1;jettySize=auto;html=1;exitX=0.5;exitY=0;exitDx=0;exitDy=0;entryDx=0;entryDy=0;dashed=1;dashPattern=1 2;endArrow=none;endFill=0;" edge="1" parent="1" source="uLn7ksq6nls_gsXbyjSP-61" target="uLn7ksq6nls_gsXbyjSP-73">
          <mxGeometry relative="1" as="geometry">
            <mxPoint x="330.37" y="690" as="sourcePoint" />
            <mxPoint x="285.37" y="640" as="targetPoint" />
          </mxGeometry>
        </mxCell>
        <mxCell id="uLn7ksq6nls_gsXbyjSP-73" value="" style="shape=waypoint;sketch=0;fillStyle=solid;size=6;pointerEvents=1;points=[];fillColor=none;resizable=0;rotatable=0;perimeter=centerPerimeter;snapToPoint=1;" vertex="1" parent="1">
          <mxGeometry x="320.37" y="680" width="20" height="20" as="geometry" />
        </mxCell>
        <mxCell id="uLn7ksq6nls_gsXbyjSP-78" value="nombre" style="ellipse;whiteSpace=wrap;html=1;align=center;fontStyle=4;" vertex="1" parent="1">
          <mxGeometry x="223.25" y="450" width="100" height="40" as="geometry" />
        </mxCell>
        <mxCell id="uLn7ksq6nls_gsXbyjSP-83" value="(1, N)" style="text;strokeColor=none;fillColor=none;spacingLeft=4;spacingRight=4;overflow=hidden;rotatable=0;points=[[0,0.5],[1,0.5]];portConstraint=eastwest;fontSize=12;whiteSpace=wrap;html=1;" vertex="1" parent="1">
          <mxGeometry x="74" y="400" width="50" height="20" as="geometry" />
        </mxCell>
        <mxCell id="uLn7ksq6nls_gsXbyjSP-101" value="nombre" style="ellipse;whiteSpace=wrap;html=1;align=center;fontStyle=4" vertex="1" parent="1">
          <mxGeometry x="433.21000000000004" y="220" width="121" height="40" as="geometry" />
        </mxCell>
        <mxCell id="uLn7ksq6nls_gsXbyjSP-102" value="" style="shape=waypoint;sketch=0;fillStyle=solid;size=6;pointerEvents=1;points=[];fillColor=none;resizable=0;rotatable=0;perimeter=centerPerimeter;snapToPoint=1;" vertex="1" parent="1">
          <mxGeometry x="423.71000000000004" y="230" width="20" height="20" as="geometry" />
        </mxCell>
        <mxCell id="uLn7ksq6nls_gsXbyjSP-109" value="COMPOSITOR" style="whiteSpace=wrap;html=1;align=center;" vertex="1" parent="1">
          <mxGeometry x="283.84000000000003" y="220" width="100" height="40" as="geometry" />
        </mxCell>
        <mxCell id="uLn7ksq6nls_gsXbyjSP-110" style="edgeStyle=orthogonalEdgeStyle;rounded=0;orthogonalLoop=1;jettySize=auto;html=1;exitX=1;exitY=0.5;exitDx=0;exitDy=0;entryX=0.617;entryY=0.85;entryDx=0;entryDy=0;entryPerimeter=0;fontFamily=Helvetica;fontSize=14;fontColor=default;startSize=0;dashed=1;dashPattern=1 2;endArrow=none;endFill=0;" edge="1" parent="1" source="uLn7ksq6nls_gsXbyjSP-109" target="uLn7ksq6nls_gsXbyjSP-102">
          <mxGeometry relative="1" as="geometry" />
        </mxCell>
        <mxCell id="uLn7ksq6nls_gsXbyjSP-114" style="edgeStyle=orthogonalEdgeStyle;rounded=0;orthogonalLoop=1;jettySize=auto;html=1;exitX=0;exitY=0.5;exitDx=0;exitDy=0;entryX=0.75;entryY=0;entryDx=0;entryDy=0;fontFamily=Helvetica;fontSize=14;fontColor=default;startSize=0;dashed=1;dashPattern=1 2;endArrow=none;endFill=0;" edge="1" parent="1" source="uLn7ksq6nls_gsXbyjSP-111" target="uLn7ksq6nls_gsXbyjSP-109">
          <mxGeometry relative="1" as="geometry">
            <mxPoint x="394.2099999999955" y="180" as="sourcePoint" />
          </mxGeometry>
        </mxCell>
        <mxCell id="uLn7ksq6nls_gsXbyjSP-111" value="estilo_musical" style="ellipse;whiteSpace=wrap;html=1;align=center;" vertex="1" parent="1">
          <mxGeometry x="433.21000000000004" y="160" width="121" height="40" as="geometry" />
        </mxCell>
        <mxCell id="uLn7ksq6nls_gsXbyjSP-113" style="edgeStyle=orthogonalEdgeStyle;rounded=0;orthogonalLoop=1;jettySize=auto;html=1;exitX=0;exitY=0.5;exitDx=0;exitDy=0;entryX=0.75;entryY=1;entryDx=0;entryDy=0;fontFamily=Helvetica;fontSize=14;fontColor=default;startSize=0;dashed=1;dashPattern=1 2;endArrow=none;endFill=0;" edge="1" parent="1" source="uLn7ksq6nls_gsXbyjSP-112" target="uLn7ksq6nls_gsXbyjSP-109">
          <mxGeometry relative="1" as="geometry">
            <mxPoint x="394.2099999999955" y="300" as="sourcePoint" />
          </mxGeometry>
        </mxCell>
        <mxCell id="uLn7ksq6nls_gsXbyjSP-112" value="fecha_debut" style="ellipse;whiteSpace=wrap;html=1;align=center;" vertex="1" parent="1">
          <mxGeometry x="405.28" y="280" width="121" height="40" as="geometry" />
        </mxCell>
        <mxCell id="uLn7ksq6nls_gsXbyjSP-127" style="edgeStyle=orthogonalEdgeStyle;rounded=0;orthogonalLoop=1;jettySize=auto;html=1;exitX=1;exitY=0.5;exitDx=0;exitDy=0;fontFamily=Helvetica;fontSize=14;fontColor=default;startSize=0;endArrow=none;endFill=0;" edge="1" parent="1" source="uLn7ksq6nls_gsXbyjSP-117" target="uLn7ksq6nls_gsXbyjSP-109">
          <mxGeometry relative="1" as="geometry" />
        </mxCell>
        <mxCell id="uLn7ksq6nls_gsXbyjSP-131" style="edgeStyle=orthogonalEdgeStyle;rounded=0;orthogonalLoop=1;jettySize=auto;html=1;exitX=0.5;exitY=1;exitDx=0;exitDy=0;fontFamily=Helvetica;fontSize=14;fontColor=default;startSize=0;endArrow=none;endFill=0;" edge="1" parent="1" source="uLn7ksq6nls_gsXbyjSP-117" target="uLn7ksq6nls_gsXbyjSP-7">
          <mxGeometry relative="1" as="geometry" />
        </mxCell>
        <mxCell id="uLn7ksq6nls_gsXbyjSP-117" value="CREA&lt;br&gt;N:N" style="shape=rhombus;perimeter=rhombusPerimeter;whiteSpace=wrap;html=1;align=center;" vertex="1" parent="1">
          <mxGeometry x="115.13" y="210" width="98.87" height="60" as="geometry" />
        </mxCell>
        <mxCell id="uLn7ksq6nls_gsXbyjSP-118" value="" style="shape=waypoint;sketch=0;fillStyle=solid;size=6;pointerEvents=1;points=[];fillColor=none;resizable=0;rotatable=0;perimeter=centerPerimeter;snapToPoint=1;" vertex="1" parent="1">
          <mxGeometry x="214" y="460" width="20" height="20" as="geometry" />
        </mxCell>
        <mxCell id="uLn7ksq6nls_gsXbyjSP-129" style="edgeStyle=orthogonalEdgeStyle;rounded=0;orthogonalLoop=1;jettySize=auto;html=1;exitX=1;exitY=0.5;exitDx=0;exitDy=0;entryX=0.692;entryY=1.017;entryDx=0;entryDy=0;entryPerimeter=0;fontFamily=Helvetica;fontSize=14;fontColor=default;startSize=0;dashed=1;dashPattern=1 2;endArrow=none;endFill=0;" edge="1" parent="1" source="uLn7ksq6nls_gsXbyjSP-4" target="uLn7ksq6nls_gsXbyjSP-25">
          <mxGeometry relative="1" as="geometry" />
        </mxCell>
        <mxCell id="uLn7ksq6nls_gsXbyjSP-132" value="(1, N)" style="text;strokeColor=none;fillColor=none;spacingLeft=4;spacingRight=4;overflow=hidden;rotatable=0;points=[[0,0.5],[1,0.5]];portConstraint=eastwest;fontSize=12;whiteSpace=wrap;html=1;" vertex="1" parent="1">
          <mxGeometry x="244.5" y="220" width="50" height="30" as="geometry" />
        </mxCell>
        <mxCell id="uLn7ksq6nls_gsXbyjSP-134" value="(1, N)" style="text;strokeColor=none;fillColor=none;spacingLeft=4;spacingRight=4;overflow=hidden;rotatable=0;points=[[0,0.5],[1,0.5]];portConstraint=eastwest;fontSize=12;whiteSpace=wrap;html=1;" vertex="1" parent="1">
          <mxGeometry x="162.75" y="360" width="50" height="30" as="geometry" />
        </mxCell>
        <mxCell id="uLn7ksq6nls_gsXbyjSP-143" value="" style="shape=waypoint;sketch=0;fillStyle=solid;size=6;pointerEvents=1;points=[];fillColor=none;resizable=0;rotatable=0;perimeter=centerPerimeter;snapToPoint=1;" vertex="1" parent="1">
          <mxGeometry x="220.37" y="770" width="20" height="20" as="geometry" />
        </mxCell>
        <mxCell id="uLn7ksq6nls_gsXbyjSP-146" style="edgeStyle=orthogonalEdgeStyle;rounded=0;orthogonalLoop=1;jettySize=auto;html=1;exitX=1;exitY=1;exitDx=0;exitDy=0;entryX=0.5;entryY=0;entryDx=0;entryDy=0;fontFamily=Helvetica;fontSize=14;fontColor=default;startSize=0;endArrow=none;endFill=0;dashed=1;dashPattern=1 2;" edge="1" parent="1" source="uLn7ksq6nls_gsXbyjSP-145" target="uLn7ksq6nls_gsXbyjSP-117">
          <mxGeometry relative="1" as="geometry" />
        </mxCell>
        <mxCell id="uLn7ksq6nls_gsXbyjSP-145" value="fecha_composicion" style="ellipse;whiteSpace=wrap;html=1;align=center;fontStyle=4" vertex="1" parent="1">
          <mxGeometry x="64" y="150" width="121" height="40" as="geometry" />
        </mxCell>
        <mxCell id="uLn7ksq6nls_gsXbyjSP-147" value="" style="shape=waypoint;sketch=0;fillStyle=solid;size=6;pointerEvents=1;points=[];fillColor=none;resizable=0;rotatable=0;perimeter=centerPerimeter;snapToPoint=1;" vertex="1" parent="1">
          <mxGeometry x="153.87000000000006" y="180" width="20" height="20" as="geometry" />
        </mxCell>
        <mxCell id="uLn7ksq6nls_gsXbyjSP-150" value="COMPOSITOR" style="text;html=1;strokeColor=none;fillColor=none;align=center;verticalAlign=middle;whiteSpace=wrap;rounded=0;fontSize=9;movable=1;resizable=1;rotatable=1;deletable=1;editable=1;locked=0;connectable=1;container=0;" vertex="1" parent="1">
          <mxGeometry x="310" y="890" width="82" height="20" as="geometry" />
        </mxCell>
        <mxCell id="uLn7ksq6nls_gsXbyjSP-155" value="DISCO" style="text;html=1;strokeColor=none;fillColor=none;align=center;verticalAlign=middle;whiteSpace=wrap;rounded=0;fontSize=9;container=0;" vertex="1" parent="1">
          <mxGeometry x="392.71000000000004" y="890" width="82" height="20" as="geometry" />
        </mxCell>
        <mxCell id="uLn7ksq6nls_gsXbyjSP-158" value="COMPOSITOR" style="text;html=1;strokeColor=none;fillColor=none;align=center;verticalAlign=middle;whiteSpace=wrap;rounded=0;fontSize=9;container=0;" vertex="1" parent="1">
          <mxGeometry x="118.87" y="1060" width="82" height="20" as="geometry" />
        </mxCell>
        <mxCell id="uLn7ksq6nls_gsXbyjSP-161" value="CANCION" style="text;html=1;strokeColor=none;fillColor=none;align=center;verticalAlign=middle;whiteSpace=wrap;rounded=0;fontSize=9;container=0;" vertex="1" parent="1">
          <mxGeometry x="212.5" y="1060" width="82" height="20" as="geometry" />
        </mxCell>
        <mxCell id="uLn7ksq6nls_gsXbyjSP-164" value="CANCION" style="text;html=1;strokeColor=none;fillColor=none;align=center;verticalAlign=middle;whiteSpace=wrap;rounded=0;fontSize=9;container=0;" vertex="1" parent="1">
          <mxGeometry x="228.5" y="1020" width="82" height="20" as="geometry" />
        </mxCell>
        <mxCell id="uLn7ksq6nls_gsXbyjSP-149" value="" style="endArrow=none;dashed=1;html=1;rounded=0;exitX=0.056;exitY=0.071;exitDx=0;exitDy=0;exitPerimeter=0;entryX=1;entryY=0;entryDx=0;entryDy=0;movable=1;resizable=1;rotatable=1;deletable=1;editable=1;locked=0;connectable=1;" edge="1" parent="1">
          <mxGeometry width="50" height="50" relative="1" as="geometry">
            <mxPoint x="312.05" y="891" as="sourcePoint" />
            <mxPoint x="389.95" y="890" as="targetPoint" />
          </mxGeometry>
        </mxCell>
        <mxCell id="uLn7ksq6nls_gsXbyjSP-154" value="" style="endArrow=none;dashed=1;html=1;rounded=0;exitX=0.056;exitY=0.071;exitDx=0;exitDy=0;exitPerimeter=0;entryX=1;entryY=0;entryDx=0;entryDy=0;" edge="1" parent="1">
          <mxGeometry width="50" height="50" relative="1" as="geometry">
            <mxPoint x="394.76000000000005" y="891" as="sourcePoint" />
            <mxPoint x="472.66" y="890" as="targetPoint" />
          </mxGeometry>
        </mxCell>
        <mxCell id="uLn7ksq6nls_gsXbyjSP-157" value="" style="endArrow=none;dashed=1;html=1;rounded=0;exitX=0.056;exitY=0.071;exitDx=0;exitDy=0;exitPerimeter=0;entryX=1;entryY=0;entryDx=0;entryDy=0;" edge="1" parent="1">
          <mxGeometry width="50" height="50" relative="1" as="geometry">
            <mxPoint x="120.92" y="1061" as="sourcePoint" />
            <mxPoint x="198.82" y="1060" as="targetPoint" />
          </mxGeometry>
        </mxCell>
        <mxCell id="uLn7ksq6nls_gsXbyjSP-160" value="" style="endArrow=none;dashed=1;html=1;rounded=0;exitX=0;exitY=0;exitDx=0;exitDy=0;entryX=1;entryY=0;entryDx=0;entryDy=0;" edge="1" parent="1" source="uLn7ksq6nls_gsXbyjSP-161" target="uLn7ksq6nls_gsXbyjSP-161">
          <mxGeometry width="50" height="50" relative="1" as="geometry">
            <mxPoint x="214.55" y="1060" as="sourcePoint" />
            <mxPoint x="292.45" y="1059" as="targetPoint" />
          </mxGeometry>
        </mxCell>
        <mxCell id="uLn7ksq6nls_gsXbyjSP-163" value="" style="endArrow=none;dashed=1;html=1;rounded=0;exitX=0;exitY=0;exitDx=0;exitDy=0;entryX=1;entryY=0;entryDx=0;entryDy=0;" edge="1" parent="1" source="uLn7ksq6nls_gsXbyjSP-164" target="uLn7ksq6nls_gsXbyjSP-164">
          <mxGeometry width="50" height="50" relative="1" as="geometry">
            <mxPoint x="225.3" y="1021" as="sourcePoint" />
            <mxPoint x="303.2" y="1020" as="targetPoint" />
            <Array as="points">
              <mxPoint x="269" y="1020" />
            </Array>
          </mxGeometry>
        </mxCell>
        <mxCell id="uLn7ksq6nls_gsXbyjSP-166" value="" style="endArrow=none;dashed=1;html=1;rounded=0;exitX=0;exitY=0.25;exitDx=0;exitDy=0;entryX=1;entryY=0.25;entryDx=0;entryDy=0;" edge="1" parent="1" source="uLn7ksq6nls_gsXbyjSP-167" target="uLn7ksq6nls_gsXbyjSP-167">
          <mxGeometry width="50" height="50" relative="1" as="geometry">
            <mxPoint x="165.67325000000002" y="1021" as="sourcePoint" />
            <mxPoint x="218.99675000000002" y="1020" as="targetPoint" />
          </mxGeometry>
        </mxCell>
        <mxCell id="uLn7ksq6nls_gsXbyjSP-167" value="SOCIO" style="text;html=1;strokeColor=none;fillColor=none;align=center;verticalAlign=middle;whiteSpace=wrap;rounded=0;fontSize=9;container=0;" vertex="1" parent="1">
          <mxGeometry x="164.13" y="1010" width="47.25" height="30" as="geometry" />
        </mxCell>
      </root>
    </mxGraphModel>
  </diagram>
</mxfile>
